<svg xmlns="http://www.w3.org/2000/svg" width="16" height="16" viewBox="0 0 16 16">
    <g data-name="그룹 1171">
        <g data-name="그룹 1169">
            <path data-name="사각형 23868" style="fill:transparent" d="M0 0h16v16H0z"/>
        </g>
        <g data-name="그룹 1170">
            <path data-name="패스 544" d="M12.1 10.993a5.022 5.022 0 0 0-3-7.893 5.045 5.045 0 0 0-2.543 9.754 4.982 4.982 0 0 0 4.443-.76l4.311 4.311a.772.772 0 0 0 1.093 0 .772.772 0 0 0 0-1.093zm-4.055.535a3.489 3.489 0 1 1 3.485-3.489 3.485 3.485 0 0 1-3.489 3.489z" transform="translate(-1.818 -1.814)" style="fill:#01a014"/>
        </g>
    </g>
</svg>
