<svg xmlns="http://www.w3.org/2000/svg" width="16" height="16" viewBox="0 0 16 16">
    <path data-name="패스 545" d="M0 0h16v16H0z" style="fill:none"/>
    <path data-name="패스 546" d="M13.129 3.41a1.393 1.393 0 0 0-.986-.41H4.389A1.388 1.388 0 0 0 3 4.389v9.72A1.393 1.393 0 0 0 4.389 15.5h9.72a1.393 1.393 0 0 0 1.391-1.392V6.353a1.365 1.365 0 0 0-.41-.979zm-3.881 10.7a2.083 2.083 0 1 1 2.083-2.083 2.08 2.08 0 0 1-2.083 2.081zm.694-6.943H5.777a1.389 1.389 0 0 1 0-2.777h4.166a1.389 1.389 0 1 1 0 2.777z" transform="translate(-1.248 -1.248)" style="fill:#01a014"/>
</svg>
