<svg xmlns="http://www.w3.org/2000/svg" width="24" height="24" viewBox="0 0 24 24">
    <path data-name="사각형 64" style="fill:none" d="M0 0h24v24H0z"/>
    <g data-name="그룹 472">
        <path data-name="패스 26" d="m18.04 7.99-.63-1.4-1.4-.63a.5.5 0 0 1 0-.91l1.4-.63.63-1.4a.5.5 0 0 1 .91 0l.63 1.4 1.4.63a.5.5 0 0 1 0 .91l-1.4.63-.63 1.4a.5.5 0 0 1-.91 0zm3.24 4.73-.32-.72a.5.5 0 0 0-.91 0l-.32.72-.73.32a.5.5 0 0 0 0 .91l.72.32.32.73a.5.5 0 0 0 .91 0l.32-.72.73-.32a.5.5 0 0 0 0-.91zm-5.04 1.65 1.23.93a1.006 1.006 0 0 1 .26 1.3l-1.62 2.8a.987.987 0 0 1-1.25.42l-1.43-.6a6.672 6.672 0 0 1-.64.37l-.19 1.54a1 1 0 0 1-.99.88H8.38a1 1 0 0 1-.99-.88l-.19-1.54a5.886 5.886 0 0 1-.64-.37l-1.43.6a.987.987 0 0 1-1.25-.42l-1.62-2.8a1.008 1.008 0 0 1 .26-1.3l1.23-.93V14c0-.12 0-.25.01-.37l-1.23-.93a1.006 1.006 0 0 1-.26-1.3l1.62-2.8a.987.987 0 0 1 1.25-.42l1.43.6a6.671 6.671 0 0 1 .64-.37l.19-1.54A.985.985 0 0 1 8.38 6h3.23a1 1 0 0 1 .99.88l.19 1.54a5.886 5.886 0 0 1 .64.37l1.43-.6a.987.987 0 0 1 1.25.42l1.62 2.8a1.008 1.008 0 0 1-.26 1.3l-1.23.93c.01.12.01.24.01.37s0 .24-.01.36zM13 14a3 3 0 1 0-3 3 3 3 0 0 0 3-3z" style="fill:#fff"/>
    </g>
</svg>
