<svg xmlns="http://www.w3.org/2000/svg" width="56" height="56" viewBox="0 0 56 56">
    <g data-name="그룹 1175" transform="translate(-1724.694 -18.694)">
        <circle data-name="타원 1" cx="28" cy="28" r="28" transform="translate(1724.694 18.694)" style="fill:#fff"/>
        <g data-name="그룹 96">
            <path data-name="사각형 58" transform="translate(1740.694 34.694)" style="fill:none" d="M0 0h24v24H0z"/>
            <path data-name="패스 19" d="M-240.026 98.025a7.52 7.52 0 0 0 4.647-6.933 7.553 7.553 0 0 0-7.587-7.518 7.553 7.553 0 0 0-7.587 7.518 7.52 7.52 0 0 0 4.647 6.933 10.743 10.743 0 0 0-7.792 9.09h1.089a9.692 9.692 0 0 1 9.643-8.421 9.692 9.692 0 0 1 9.643 8.421h1.089a10.743 10.743 0 0 0-7.792-9.09zM-249.4 91.2a6.345 6.345 0 0 1 6.437-6.3 6.393 6.393 0 0 1 6.493 6.3 6.407 6.407 0 0 1-6.436 6.378A6.457 6.457 0 0 1-249.4 91.2z" transform="translate(1995.782 -48.529)" style="fill:#01a014;stroke:#01a014"/>
        </g>
    </g>
</svg>
